<svg id="svg" version="1.1" xmlns="http://www.w3.org/2000/svg" xmlns:xlink="http://www.w3.org/1999/xlink" width="400" height="400" viewBox="0, 0, 400,400"><g id="svgg"><path id="path0" d="M198.200 47.687 C 196.207 48.062,194.139 48.544,189.200 49.785 C 186.350 50.501,184.635 50.885,181.000 51.621 C 179.680 51.889,177.374 52.533,175.876 53.054 C 174.378 53.574,172.827 54.000,172.429 54.000 C 171.497 54.000,164.717 56.203,162.471 57.237 C 161.519 57.674,160.211 58.138,159.562 58.268 C 158.914 58.397,158.286 58.660,158.168 58.852 C 158.050 59.043,157.553 59.200,157.065 59.200 C 156.577 59.200,154.770 59.920,153.049 60.800 C 151.329 61.680,149.764 62.400,149.572 62.400 C 149.381 62.400,148.240 62.850,147.037 63.400 C 145.835 63.950,144.641 64.400,144.383 64.400 C 144.126 64.400,143.558 64.855,143.121 65.410 C 142.094 66.715,139.946 67.600,137.805 67.600 C 135.764 67.600,134.204 68.681,133.875 70.324 C 133.749 70.955,133.168 71.906,132.584 72.436 C 132.000 72.966,131.137 73.817,130.667 74.326 C 130.196 74.835,129.204 75.627,128.463 76.085 C 127.721 76.543,126.498 77.837,125.745 78.959 C 124.992 80.082,123.688 81.868,122.846 82.930 C 121.273 84.914,121.065 85.269,117.306 92.400 C 116.089 94.710,114.957 96.780,114.792 97.000 C 114.627 97.220,114.368 98.030,114.216 98.800 C 114.065 99.570,113.697 100.740,113.400 101.400 C 113.102 102.060,112.680 103.770,112.462 105.200 C 112.244 106.630,111.759 108.970,111.383 110.400 C 110.868 112.361,110.657 115.265,110.524 122.208 L 110.348 131.416 111.319 132.546 C 112.235 133.611,112.974 136.034,113.348 139.200 C 113.748 142.585,114.485 145.921,115.158 147.400 C 116.244 149.786,117.479 155.250,118.031 160.113 C 118.593 165.057,118.434 165.653,115.914 168.024 C 115.081 168.807,114.400 169.582,114.400 169.746 C 114.400 170.596,112.657 173.678,111.506 174.863 C 109.628 176.798,108.927 180.839,109.552 186.138 C 109.798 188.227,110.000 191.708,110.000 193.874 C 110.000 197.040,110.156 198.103,110.795 199.296 C 111.788 201.147,113.550 207.874,114.228 212.400 C 114.376 213.390,114.836 214.678,115.249 215.262 C 115.662 215.846,116.000 216.442,116.000 216.587 C 116.000 216.732,116.525 217.964,117.166 219.325 C 117.807 220.686,118.440 222.174,118.571 222.631 C 118.852 223.609,121.775 225.004,124.400 225.413 C 127.495 225.895,130.166 228.148,130.641 230.677 C 130.778 231.408,131.205 232.410,131.591 232.903 C 132.447 234.000,133.781 237.832,134.340 240.800 C 135.457 246.740,135.761 247.932,136.580 249.600 C 137.903 252.292,139.200 258.757,139.200 262.654 C 139.200 265.175,139.242 265.285,140.365 265.709 C 141.194 266.022,141.871 266.821,142.711 268.475 C 143.360 269.754,145.131 272.174,146.646 273.853 C 153.435 281.376,152.858 288.158,145.326 289.388 C 144.273 289.560,143.430 289.984,143.055 290.531 C 142.728 291.009,141.922 292.012,141.266 292.760 C 140.509 293.624,139.887 294.958,139.564 296.415 C 138.964 299.119,138.737 299.451,136.500 300.906 C 135.008 301.876,134.798 302.194,134.786 303.506 C 134.753 306.907,133.462 310.620,131.877 311.869 C 131.367 312.271,130.781 312.900,130.575 313.267 C 130.157 314.009,126.443 318.297,124.795 319.940 C 124.210 320.523,122.847 321.234,121.766 321.520 C 120.685 321.806,119.149 322.211,118.354 322.420 C 117.558 322.629,116.379 322.800,115.734 322.800 C 115.088 322.800,114.389 322.964,114.180 323.165 C 113.588 323.733,108.103 325.443,105.000 326.026 C 103.088 326.385,101.809 326.886,100.966 327.605 C 100.288 328.185,98.848 328.889,97.766 329.171 C 93.621 330.249,92.155 330.839,90.854 331.951 C 89.415 333.182,88.450 333.540,82.200 335.164 C 81.320 335.393,80.150 335.990,79.600 336.491 C 78.177 337.788,71.563 340.800,70.139 340.800 C 69.834 340.800,68.913 341.214,68.092 341.720 C 67.271 342.226,65.798 342.897,64.818 343.211 C 63.838 343.525,61.529 344.551,59.687 345.491 C 57.845 346.431,56.063 347.200,55.726 347.200 C 55.390 347.200,54.009 347.725,52.657 348.366 C 48.920 350.139,44.800 352.000,44.613 352.000 C 44.521 352.000,43.762 352.405,42.926 352.900 C 41.037 354.019,38.898 354.786,37.646 354.794 C 37.122 354.797,36.042 354.973,35.246 355.184 C 34.451 355.395,33.131 355.672,32.313 355.799 C 31.253 355.965,30.639 356.350,30.171 357.141 C 29.453 358.358,28.140 358.834,23.251 359.652 C 20.914 360.043,19.971 360.422,18.710 361.476 C 17.834 362.207,16.641 362.905,16.059 363.027 C 15.477 363.149,14.693 363.414,14.317 363.617 C 13.942 363.819,12.912 364.101,12.029 364.242 C 11.028 364.402,10.341 364.755,10.207 365.178 C 9.789 366.496,7.174 367.528,3.497 367.826 L 0.000 368.110 0.000 384.055 L 0.000 400.000 200.000 400.000 L 400.000 400.000 400.000 384.058 L 400.000 368.115 396.776 367.846 C 393.321 367.558,392.387 367.198,390.808 365.545 C 390.230 364.939,388.777 364.186,387.400 363.779 C 384.385 362.886,382.146 361.789,381.696 360.985 C 381.500 360.636,380.136 360.097,378.574 359.751 C 373.886 358.714,372.644 358.252,371.430 357.095 C 370.787 356.482,369.797 355.881,369.230 355.759 C 364.149 354.670,360.113 353.484,358.148 352.503 C 353.128 349.996,346.915 347.336,345.305 347.005 C 344.592 346.858,343.906 346.572,343.781 346.369 C 343.655 346.166,343.295 346.000,342.981 346.000 C 342.472 346.000,341.666 345.464,340.255 344.188 C 340.005 343.961,338.990 343.533,338.000 343.236 C 334.520 342.193,332.851 341.507,332.109 340.816 C 331.697 340.432,330.379 339.898,329.180 339.629 C 326.042 338.925,324.829 338.428,322.800 337.017 C 320.946 335.727,319.902 335.268,316.800 334.375 C 314.344 333.668,311.901 332.428,311.310 331.589 C 311.037 331.201,310.025 330.775,309.020 330.624 C 308.029 330.475,307.114 330.184,306.986 329.977 C 306.858 329.770,306.428 329.600,306.032 329.600 C 305.635 329.600,303.954 328.902,302.297 328.050 C 299.451 326.586,297.514 325.981,293.800 325.396 C 292.124 325.132,289.434 324.303,287.400 323.423 C 286.740 323.137,285.480 322.708,284.600 322.470 C 276.172 320.185,273.927 318.678,270.496 313.000 C 269.699 311.680,268.574 309.970,267.998 309.200 C 266.822 307.630,266.000 305.457,266.000 303.917 C 266.000 302.560,265.288 301.303,263.556 299.600 C 262.594 298.655,261.897 297.420,261.409 295.800 C 260.748 293.602,260.248 292.873,257.425 289.991 C 256.866 289.421,256.114 289.200,254.736 289.200 C 248.699 289.200,244.156 283.467,247.343 279.870 C 247.894 279.249,248.661 277.719,249.048 276.470 C 249.848 273.887,250.976 271.698,251.965 270.808 C 252.337 270.474,253.171 269.480,253.819 268.600 C 254.467 267.720,255.493 266.523,256.099 265.940 C 256.704 265.356,257.200 264.546,257.200 264.139 C 257.200 261.995,259.125 255.019,260.163 253.400 C 260.639 252.657,260.809 250.889,261.431 240.200 C 261.707 235.449,262.093 234.269,263.753 233.103 C 265.491 231.881,266.000 231.342,266.000 230.720 C 266.000 229.960,268.349 227.200,268.996 227.200 C 269.291 227.200,269.593 227.065,269.667 226.900 C 269.938 226.289,273.076 224.862,275.494 224.251 C 279.228 223.306,283.200 220.086,283.200 218.003 C 283.200 217.775,283.365 217.277,283.567 216.895 C 284.593 214.956,285.565 212.375,285.799 210.971 C 285.943 210.107,286.208 208.950,286.387 208.400 C 286.567 207.850,286.939 206.320,287.214 205.000 C 287.956 201.436,288.812 198.888,289.441 198.366 C 290.087 197.830,290.273 183.731,289.650 182.495 C 288.067 179.349,287.661 178.374,287.282 176.800 C 286.267 172.579,286.000 171.180,286.000 170.076 C 286.000 169.156,285.661 168.682,284.410 167.854 C 281.982 166.247,281.573 165.307,280.772 159.495 C 280.371 156.583,279.758 152.400,279.410 150.200 C 278.920 147.106,278.696 140.716,278.421 122.000 C 278.059 97.402,277.933 95.566,276.415 92.782 C 275.572 91.238,274.750 88.268,273.600 82.624 C 273.424 81.757,273.018 80.856,272.698 80.622 C 272.378 80.388,271.432 79.127,270.595 77.820 C 269.759 76.513,268.587 75.032,267.989 74.530 C 267.210 73.874,266.750 72.925,266.362 71.174 C 265.684 68.118,265.748 68.147,259.000 67.878 C 252.802 67.630,250.770 67.150,249.472 65.624 C 248.992 65.061,248.065 64.254,247.410 63.832 C 246.756 63.410,246.036 62.916,245.810 62.735 C 245.585 62.555,244.410 61.648,243.200 60.720 C 240.252 58.459,240.379 58.562,238.888 57.230 C 238.167 56.585,236.727 55.745,235.688 55.363 C 234.650 54.981,233.260 54.276,232.600 53.796 C 231.330 52.873,230.351 52.569,226.800 51.993 C 223.132 51.399,219.108 50.165,216.400 48.803 C 213.336 47.262,203.621 46.666,198.200 47.687 " stroke="none" fill="#757c84" fill-rule="evenodd"></path><path id="path1" d="M0.000 182.600 L 0.000 365.200 1.345 365.200 C 2.244 365.200,3.202 364.793,4.235 363.972 C 5.085 363.297,6.284 362.643,6.899 362.520 C 7.514 362.397,8.114 362.140,8.232 361.948 C 8.350 361.757,8.878 361.600,9.405 361.600 C 10.692 361.600,12.393 360.827,13.554 359.715 C 14.592 358.721,15.758 358.360,20.553 357.553 C 23.426 357.069,23.810 356.892,24.884 355.555 C 25.972 354.201,26.312 354.049,29.293 353.586 C 31.997 353.165,32.740 352.878,33.861 351.821 C 34.682 351.046,36.243 350.231,37.900 349.712 C 39.385 349.247,41.614 348.255,42.854 347.507 C 44.094 346.759,46.704 345.633,48.654 345.004 C 50.604 344.375,52.740 343.471,53.400 342.995 C 54.790 341.994,57.290 340.914,61.800 339.369 C 63.560 338.766,65.090 338.158,65.200 338.019 C 65.310 337.879,66.894 337.279,68.721 336.685 C 70.547 336.091,72.709 335.068,73.526 334.411 C 74.535 333.600,76.163 332.925,78.606 332.303 C 81.147 331.657,82.903 330.914,84.600 329.767 C 88.252 327.300,92.045 325.647,95.020 325.226 C 96.983 324.948,98.250 324.482,99.752 323.485 C 100.879 322.736,102.431 321.928,103.201 321.689 C 109.728 319.659,111.351 319.200,111.995 319.200 C 112.401 319.200,113.574 318.840,114.600 318.400 C 115.626 317.960,116.856 317.596,117.333 317.591 C 120.196 317.563,123.224 315.136,125.200 311.286 C 127.087 307.612,128.439 306.018,130.422 305.131 C 131.403 304.692,132.400 302.580,132.400 300.943 C 132.400 300.574,133.087 299.356,133.928 298.236 C 134.804 297.067,135.945 294.752,136.606 292.800 C 138.109 288.358,138.755 287.482,141.289 286.441 C 144.354 285.181,144.405 285.142,145.407 283.270 C 146.635 280.973,145.946 279.198,142.500 275.777 C 141.125 274.412,140.000 273.166,140.000 273.009 C 140.000 272.852,139.671 272.246,139.268 271.662 C 138.021 269.852,136.915 266.352,136.435 262.693 C 135.938 258.902,135.656 258.048,134.284 256.180 C 133.713 255.404,133.201 253.805,132.875 251.780 C 131.815 245.214,131.436 243.790,130.322 242.206 C 129.701 241.323,128.914 239.430,128.573 238.000 C 127.537 233.658,127.070 232.108,126.625 231.541 C 125.869 230.578,123.219 229.600,121.367 229.600 C 118.105 229.600,116.550 228.263,112.962 222.373 C 111.622 220.174,110.800 218.370,110.800 217.631 C 110.800 216.975,110.640 216.024,110.445 215.519 C 110.250 215.013,109.877 213.610,109.617 212.400 C 109.357 211.190,108.985 209.840,108.791 209.400 C 107.788 207.128,107.469 204.640,107.150 196.600 C 106.958 191.760,106.612 186.630,106.381 185.200 C 105.641 180.631,105.509 178.319,105.937 177.448 C 106.166 176.982,106.842 174.980,107.439 173.000 C 108.733 168.709,109.029 168.216,111.405 166.400 L 113.237 165.000 113.016 162.600 C 112.616 158.239,111.005 150.026,110.192 148.200 C 107.712 142.628,107.059 136.494,107.345 121.453 C 107.604 107.823,108.066 100.289,108.690 99.522 C 109.592 98.414,110.800 95.940,110.800 95.203 C 110.800 93.882,112.396 90.087,113.873 87.894 C 114.648 86.742,115.650 85.080,116.099 84.200 C 116.548 83.320,117.242 82.315,117.641 81.967 C 118.041 81.619,119.013 80.193,119.801 78.798 C 121.071 76.552,124.229 73.199,127.525 70.600 C 128.082 70.160,129.696 68.765,131.110 67.500 C 132.524 66.235,134.016 65.200,134.426 65.200 C 134.837 65.200,135.763 64.682,136.486 64.048 C 137.797 62.899,141.747 60.800,142.599 60.800 C 142.847 60.800,143.398 60.485,143.825 60.100 C 144.918 59.113,146.161 58.542,149.600 57.447 C 151.250 56.922,154.130 55.772,156.000 54.892 C 157.870 54.012,160.417 53.082,161.660 52.826 C 163.107 52.528,164.547 51.874,165.660 51.012 C 166.922 50.034,168.114 49.536,170.000 49.199 C 172.658 48.725,175.003 48.145,179.600 46.827 C 186.532 44.839,193.478 44.344,208.200 44.791 C 221.424 45.191,222.995 45.397,226.325 47.156 C 228.070 48.079,230.230 48.800,231.248 48.800 C 231.648 48.800,232.927 49.229,234.088 49.753 C 235.250 50.277,236.650 50.841,237.200 51.005 C 239.545 51.707,242.859 53.709,244.795 55.596 C 245.940 56.711,247.581 57.982,248.443 58.422 C 250.096 59.265,251.273 60.208,254.533 63.300 C 255.848 64.548,256.890 65.202,257.568 65.207 C 265.797 65.258,269.628 66.407,270.861 69.192 C 271.155 69.856,271.531 70.400,271.698 70.400 C 271.864 70.400,272.000 70.608,272.000 70.863 C 272.000 71.118,272.697 72.243,273.549 73.363 C 274.577 74.715,275.464 76.594,276.188 78.949 C 276.788 80.902,277.767 83.332,278.364 84.349 C 279.891 86.953,280.369 89.058,280.760 94.895 C 280.998 98.451,281.298 100.290,281.751 100.981 C 282.319 101.849,282.401 103.776,282.406 116.486 C 282.411 129.056,282.501 131.241,283.080 132.800 C 283.563 134.099,283.835 136.714,284.058 142.200 C 284.228 146.380,284.538 151.240,284.747 153.000 C 284.955 154.760,285.333 158.090,285.586 160.400 C 285.863 162.936,286.235 164.661,286.523 164.753 C 288.184 165.286,290.617 168.683,291.139 171.200 C 291.436 172.630,291.929 174.880,292.235 176.200 C 293.085 179.867,293.443 184.992,293.145 189.200 C 292.996 191.290,292.858 195.340,292.837 198.200 C 292.798 203.634,292.150 207.811,290.759 211.600 C 290.315 212.810,289.421 215.373,288.773 217.296 C 286.576 223.817,282.400 228.800,279.134 228.800 C 276.775 228.800,270.906 230.795,269.810 231.970 C 269.281 232.536,268.251 233.630,267.521 234.400 C 266.791 235.170,265.941 236.565,265.633 237.500 C 265.324 238.435,264.946 239.200,264.793 239.200 C 264.385 239.200,264.029 243.136,263.597 252.394 C 263.231 260.264,262.746 264.211,261.966 265.695 C 261.764 266.077,261.596 266.617,261.590 266.895 C 261.573 267.761,258.862 271.152,257.443 272.082 C 256.700 272.569,255.772 273.560,255.383 274.284 C 254.993 275.008,254.552 275.600,254.402 275.600 C 254.017 275.600,252.031 279.640,251.945 280.600 C 251.797 282.244,252.038 282.718,253.500 283.668 C 254.981 284.630,258.733 286.000,259.886 286.000 C 260.746 286.000,262.919 288.341,263.783 290.200 C 264.192 291.080,264.947 292.436,265.459 293.213 C 265.972 293.991,266.683 295.611,267.038 296.813 C 267.393 298.016,267.800 299.180,267.942 299.400 C 268.084 299.620,268.380 300.390,268.600 301.110 C 268.857 301.952,269.710 302.955,270.984 303.915 C 273.202 305.586,274.917 307.877,275.563 310.034 C 276.485 313.112,280.592 316.800,283.098 316.800 C 283.329 316.800,284.547 317.341,285.805 318.003 C 287.062 318.664,288.835 319.319,289.745 319.457 C 290.655 319.596,291.580 319.838,291.800 319.996 C 292.020 320.154,293.640 320.512,295.400 320.792 C 297.772 321.169,298.967 321.586,300.018 322.403 C 300.830 323.035,302.455 323.725,303.818 324.019 C 306.458 324.588,308.783 325.616,309.566 326.559 C 309.848 326.898,311.605 327.652,313.472 328.234 C 315.615 328.902,317.279 329.696,317.987 330.387 C 318.603 330.990,319.533 331.607,320.054 331.760 C 320.574 331.912,321.990 332.305,323.200 332.632 C 324.410 332.960,326.390 333.833,327.600 334.572 C 328.810 335.311,330.610 336.137,331.600 336.408 C 332.590 336.679,333.940 337.133,334.600 337.417 C 335.260 337.701,336.519 338.067,337.397 338.230 C 338.276 338.392,340.668 339.307,342.713 340.263 C 344.758 341.218,346.604 342.000,346.815 342.000 C 347.027 342.000,347.200 342.149,347.200 342.332 C 347.200 342.742,350.051 344.025,353.938 345.365 C 355.554 345.923,357.762 346.923,358.844 347.589 C 359.927 348.255,361.022 348.800,361.278 348.800 C 361.859 348.800,364.288 349.567,365.545 350.147 C 366.064 350.387,366.646 350.995,366.838 351.499 C 367.284 352.672,368.701 353.200,371.407 353.200 C 374.165 353.200,375.332 353.748,376.128 355.418 C 376.637 356.485,377.075 356.810,378.283 357.017 C 379.118 357.159,380.340 357.434,381.000 357.627 C 381.660 357.820,383.047 358.083,384.083 358.211 C 385.511 358.388,386.205 358.728,386.957 359.622 C 387.502 360.270,388.219 360.800,388.551 360.800 C 388.882 360.800,389.264 360.980,389.400 361.200 C 389.536 361.420,390.081 361.600,390.612 361.600 C 391.945 361.600,395.638 363.302,396.562 364.342 C 397.054 364.896,397.798 365.200,398.662 365.200 L 400.000 365.200 400.000 182.600 L 400.000 0.000 200.000 0.000 L 0.000 0.000 0.000 182.600 " stroke="none" fill="#ebecf3" fill-rule="evenodd"></path><path id="path2" d="M191.000 44.854 C 185.079 45.583,182.108 46.096,179.600 46.821 C 175.103 48.121,172.682 48.720,170.000 49.199 C 168.114 49.536,166.922 50.034,165.660 51.012 C 164.547 51.874,163.107 52.528,161.660 52.826 C 160.417 53.082,157.870 54.012,156.000 54.892 C 154.130 55.772,151.250 56.922,149.600 57.447 C 146.161 58.542,144.918 59.113,143.825 60.100 C 143.398 60.485,142.847 60.800,142.599 60.800 C 141.747 60.800,137.797 62.899,136.486 64.048 C 135.763 64.682,134.837 65.200,134.426 65.200 C 134.016 65.200,132.524 66.235,131.110 67.500 C 129.696 68.765,128.082 70.160,127.525 70.600 C 124.229 73.199,121.071 76.552,119.801 78.798 C 119.013 80.193,118.041 81.619,117.641 81.967 C 117.242 82.315,116.548 83.320,116.099 84.200 C 115.650 85.080,114.648 86.742,113.873 87.894 C 112.396 90.087,110.800 93.882,110.800 95.203 C 110.800 95.940,109.592 98.414,108.690 99.522 C 108.066 100.289,107.604 107.823,107.345 121.453 C 107.059 136.494,107.712 142.628,110.192 148.200 C 111.005 150.026,112.616 158.239,113.016 162.600 L 113.237 165.000 111.405 166.400 C 109.029 168.216,108.733 168.709,107.439 173.000 C 106.842 174.980,106.166 176.982,105.937 177.448 C 105.509 178.319,105.641 180.631,106.381 185.200 C 106.612 186.630,106.958 191.760,107.150 196.600 C 107.469 204.640,107.788 207.128,108.791 209.400 C 108.985 209.840,109.357 211.190,109.617 212.400 C 109.877 213.610,110.250 215.013,110.445 215.519 C 110.640 216.024,110.800 216.975,110.800 217.631 C 110.800 218.370,111.622 220.174,112.962 222.373 C 116.550 228.263,118.105 229.600,121.367 229.600 C 123.219 229.600,125.869 230.578,126.625 231.541 C 127.070 232.108,127.537 233.658,128.573 238.000 C 128.914 239.430,129.701 241.323,130.322 242.206 C 131.436 243.790,131.815 245.214,132.875 251.780 C 133.201 253.805,133.713 255.404,134.284 256.180 C 135.656 258.048,135.938 258.902,136.435 262.693 C 136.915 266.352,138.021 269.852,139.268 271.662 C 139.671 272.246,140.000 272.852,140.000 273.009 C 140.000 273.166,141.125 274.412,142.500 275.777 C 145.946 279.198,146.635 280.973,145.407 283.270 C 144.405 285.142,144.354 285.181,141.289 286.441 C 138.755 287.482,138.109 288.358,136.606 292.800 C 135.945 294.752,134.804 297.067,133.928 298.236 C 133.087 299.356,132.400 300.574,132.400 300.943 C 132.400 302.580,131.403 304.692,130.422 305.131 C 128.439 306.018,127.087 307.612,125.200 311.286 C 123.224 315.136,120.196 317.563,117.333 317.591 C 116.856 317.596,115.626 317.960,114.600 318.400 C 113.574 318.840,112.401 319.200,111.995 319.200 C 111.351 319.200,109.728 319.659,103.201 321.689 C 102.431 321.928,100.879 322.736,99.752 323.485 C 98.250 324.482,96.983 324.948,95.020 325.226 C 92.045 325.647,88.252 327.300,84.600 329.767 C 82.903 330.914,81.147 331.657,78.606 332.303 C 76.163 332.925,74.535 333.600,73.526 334.411 C 72.709 335.068,70.547 336.091,68.721 336.685 C 66.894 337.279,65.310 337.879,65.200 338.019 C 65.090 338.158,63.560 338.766,61.800 339.369 C 57.290 340.914,54.790 341.994,53.400 342.995 C 52.740 343.471,50.604 344.375,48.654 345.004 C 46.704 345.633,44.094 346.759,42.854 347.507 C 41.614 348.255,39.385 349.247,37.900 349.712 C 36.243 350.231,34.682 351.046,33.861 351.821 C 32.740 352.878,31.997 353.165,29.293 353.586 C 26.312 354.049,25.972 354.201,24.884 355.555 C 23.810 356.892,23.426 357.069,20.553 357.553 C 15.758 358.360,14.592 358.721,13.554 359.715 C 12.393 360.827,10.692 361.600,9.405 361.600 C 8.878 361.600,8.350 361.757,8.232 361.948 C 8.114 362.140,7.514 362.397,6.899 362.520 C 6.284 362.643,5.085 363.297,4.235 363.972 C 3.202 364.793,2.244 365.200,1.345 365.200 C 0.243 365.200,0.000 365.353,0.000 366.044 C 0.000 367.371,4.210 366.516,7.480 364.524 C 8.536 363.880,10.390 363.046,11.600 362.671 C 12.810 362.295,14.340 361.625,15.000 361.181 C 17.279 359.650,19.865 358.693,23.057 358.200 C 23.968 358.059,25.678 357.321,26.857 356.558 C 28.036 355.796,29.450 355.074,30.000 354.954 C 31.456 354.635,33.132 354.026,35.400 352.990 C 36.500 352.487,38.120 351.861,39.000 351.599 C 39.880 351.337,42.400 350.261,44.600 349.207 C 46.800 348.154,49.590 346.962,50.800 346.558 C 52.010 346.155,54.710 344.957,56.800 343.898 C 58.890 342.839,61.378 341.862,62.328 341.728 C 63.326 341.587,65.064 340.832,66.442 339.942 C 67.754 339.094,69.046 338.397,69.313 338.394 C 70.269 338.383,73.404 337.125,75.782 335.799 C 78.053 334.533,79.151 334.109,83.600 332.776 C 84.590 332.480,86.030 331.885,86.800 331.455 C 90.533 329.370,93.624 328.058,95.878 327.601 C 97.241 327.326,98.716 326.765,99.156 326.355 C 100.369 325.225,102.825 324.049,104.815 323.646 C 105.797 323.447,107.860 322.839,109.400 322.294 C 112.369 321.244,114.046 320.772,117.600 319.987 C 121.904 319.035,124.491 317.212,127.232 313.200 C 128.517 311.319,129.204 310.452,130.444 309.148 C 131.649 307.881,133.200 304.772,133.200 303.623 C 133.200 302.385,134.077 300.705,135.404 299.400 C 136.721 298.105,137.388 296.883,137.798 295.014 C 138.619 291.273,140.267 289.360,144.459 287.283 C 147.146 285.951,147.299 285.763,148.250 282.615 C 148.749 280.967,146.641 276.844,144.061 274.418 C 142.990 273.412,141.912 271.950,141.647 271.145 C 141.383 270.344,140.562 268.904,139.821 267.945 C 138.365 266.057,137.606 263.859,137.602 261.520 C 137.600 259.823,136.970 257.327,135.251 252.200 C 134.588 250.220,133.834 247.520,133.576 246.200 C 132.987 243.180,132.477 241.430,131.594 239.400 C 130.591 237.093,129.600 234.252,129.600 233.682 C 129.600 231.519,126.274 228.000,124.228 228.000 C 122.833 228.000,118.511 226.209,117.800 225.336 C 114.977 221.870,113.106 217.513,111.989 211.800 C 111.730 210.480,111.022 207.870,110.414 206.000 C 108.889 201.313,108.354 196.166,108.271 185.400 L 108.200 176.200 109.540 172.913 C 110.593 170.328,111.320 169.215,112.940 167.703 C 116.163 164.696,116.080 164.889,115.586 161.546 C 115.346 159.926,114.998 158.060,114.812 157.400 C 114.626 156.740,114.162 154.760,113.780 153.000 C 113.398 151.240,112.824 148.810,112.504 147.600 C 111.753 144.756,111.431 143.341,110.595 139.200 C 110.217 137.330,109.736 135.467,109.525 135.060 C 108.667 133.399,108.237 122.270,108.740 114.721 C 109.580 102.098,109.567 102.187,110.811 100.309 C 111.433 99.369,112.237 97.700,112.598 96.600 C 113.357 94.287,114.402 91.889,114.779 91.600 C 114.922 91.490,115.660 90.182,116.419 88.693 C 117.179 87.204,118.160 85.544,118.600 85.005 C 119.040 84.465,120.030 82.895,120.800 81.515 C 122.061 79.255,125.715 75.230,130.207 71.154 C 131.083 70.359,132.340 69.097,133.000 68.349 C 134.329 66.844,135.287 66.317,138.100 65.546 C 139.145 65.260,140.000 64.897,140.000 64.741 C 140.000 64.304,151.912 58.585,154.400 57.828 C 155.610 57.460,157.590 56.651,158.800 56.031 C 160.010 55.411,161.599 54.792,162.332 54.656 C 164.008 54.343,166.235 53.319,167.838 52.123 C 168.519 51.615,169.540 51.200,170.107 51.200 C 171.133 51.200,174.127 50.656,176.800 49.984 C 177.570 49.791,179.280 49.368,180.600 49.044 C 181.920 48.721,184.012 48.182,185.249 47.846 C 194.268 45.401,216.562 45.401,221.291 47.847 C 223.124 48.795,227.200 50.022,229.400 50.289 C 230.500 50.422,232.030 50.897,232.800 51.343 C 235.409 52.857,237.797 53.975,238.450 53.987 C 238.807 53.994,240.209 54.990,241.565 56.200 C 242.921 57.410,244.169 58.400,244.340 58.400 C 244.510 58.400,244.998 58.715,245.425 59.100 C 245.851 59.485,247.280 60.599,248.600 61.575 C 249.920 62.551,251.270 63.643,251.600 64.003 C 253.266 65.819,256.914 66.800,261.997 66.800 C 266.218 66.800,267.524 67.559,269.193 70.987 C 269.872 72.378,271.140 74.329,272.013 75.320 C 272.886 76.312,273.600 77.232,273.600 77.366 C 273.600 77.499,273.939 78.372,274.353 79.304 C 274.767 80.237,275.422 82.260,275.810 83.800 C 276.197 85.340,276.645 86.780,276.806 87.000 C 277.478 87.919,278.799 92.396,279.165 95.000 C 279.382 96.540,279.679 98.520,279.826 99.400 C 279.972 100.280,280.206 108.506,280.346 117.681 C 280.537 130.209,280.724 134.485,281.100 134.861 C 281.434 135.194,281.600 136.698,281.601 139.380 C 281.601 141.591,281.878 145.920,282.216 149.000 C 282.554 152.080,283.071 156.929,283.364 159.775 L 283.898 164.950 285.433 166.175 C 287.785 168.052,288.129 168.593,288.679 171.295 C 288.960 172.673,289.527 174.700,289.940 175.800 C 291.355 179.568,291.600 181.564,291.600 189.332 C 291.600 198.155,291.240 200.932,289.208 207.800 C 288.817 209.120,288.270 211.010,287.991 212.000 C 285.128 222.176,283.460 224.397,277.189 226.389 C 271.135 228.313,267.600 230.213,267.600 231.543 C 267.600 232.007,264.846 234.800,264.389 234.800 C 263.704 234.800,262.405 243.561,262.386 248.307 C 262.369 252.541,261.649 257.206,260.089 263.200 C 259.473 265.565,258.140 267.780,255.989 270.012 C 248.401 277.884,247.693 286.800,254.655 286.800 C 259.010 286.800,261.318 289.171,264.571 296.986 C 264.934 297.858,265.380 298.668,265.562 298.786 C 266.037 299.094,267.600 302.265,267.600 302.923 C 267.600 303.874,268.700 305.730,270.326 307.523 C 271.186 308.470,272.139 309.730,272.444 310.323 C 272.749 310.915,273.089 311.490,273.200 311.600 C 273.311 311.710,273.671 312.338,274.001 312.995 C 274.706 314.402,277.781 317.600,278.428 317.600 C 278.675 317.600,279.354 317.932,279.938 318.338 C 280.522 318.745,281.720 319.269,282.600 319.504 C 283.480 319.739,285.460 320.322,287.000 320.799 C 290.958 322.025,291.819 322.269,295.207 323.131 C 296.861 323.551,299.056 324.279,300.085 324.748 C 301.114 325.216,302.124 325.600,302.330 325.600 C 302.535 325.600,304.602 326.500,306.922 327.600 C 309.243 328.700,311.327 329.600,311.554 329.600 C 311.782 329.600,313.293 330.311,314.913 331.179 C 316.534 332.048,319.268 333.231,320.989 333.809 C 323.771 334.743,325.808 335.724,326.400 336.415 C 326.510 336.543,327.934 337.064,329.564 337.572 C 331.195 338.081,333.408 339.015,334.482 339.648 C 335.556 340.282,336.742 340.803,337.118 340.806 C 338.259 340.816,340.825 341.849,344.400 343.738 C 346.270 344.726,349.060 345.979,350.600 346.522 C 352.140 347.066,354.965 348.258,356.877 349.171 C 358.789 350.085,361.369 351.096,362.609 351.419 C 363.849 351.742,365.104 352.247,365.398 352.541 C 366.043 353.186,367.436 353.750,370.514 354.615 C 371.787 354.973,373.227 355.655,373.714 356.133 C 374.816 357.212,376.186 357.877,378.000 358.213 C 380.343 358.648,382.925 359.595,384.400 360.561 C 385.170 361.065,386.964 361.891,388.386 362.395 C 389.808 362.900,391.811 363.830,392.838 364.461 C 396.248 366.559,400.000 367.366,400.000 366.000 C 400.000 365.359,399.733 365.200,398.662 365.200 C 397.798 365.200,397.054 364.896,396.562 364.342 C 395.638 363.302,391.945 361.600,390.612 361.600 C 390.081 361.600,389.536 361.420,389.400 361.200 C 389.264 360.980,388.882 360.800,388.551 360.800 C 388.219 360.800,387.502 360.270,386.957 359.622 C 386.205 358.728,385.511 358.388,384.083 358.211 C 383.047 358.083,381.660 357.820,381.000 357.627 C 380.340 357.434,379.118 357.159,378.283 357.017 C 377.075 356.810,376.637 356.485,376.128 355.418 C 375.332 353.748,374.165 353.200,371.407 353.200 C 368.701 353.200,367.284 352.672,366.838 351.499 C 366.646 350.995,366.064 350.387,365.545 350.147 C 364.288 349.567,361.859 348.800,361.278 348.800 C 361.022 348.800,359.927 348.255,358.844 347.589 C 357.762 346.923,355.554 345.923,353.938 345.365 C 350.051 344.025,347.200 342.742,347.200 342.332 C 347.200 342.149,347.027 342.000,346.815 342.000 C 346.604 342.000,344.758 341.218,342.713 340.263 C 340.668 339.307,338.276 338.392,337.397 338.230 C 336.519 338.067,335.260 337.701,334.600 337.417 C 333.940 337.133,332.590 336.679,331.600 336.408 C 330.610 336.137,328.810 335.311,327.600 334.572 C 326.390 333.833,324.410 332.960,323.200 332.632 C 321.990 332.305,320.574 331.912,320.054 331.760 C 319.533 331.607,318.603 330.990,317.987 330.387 C 317.279 329.696,315.615 328.902,313.472 328.234 C 311.605 327.652,309.848 326.898,309.566 326.559 C 308.783 325.616,306.458 324.588,303.818 324.019 C 302.455 323.725,300.830 323.035,300.018 322.403 C 298.967 321.586,297.772 321.169,295.400 320.792 C 293.640 320.512,292.020 320.154,291.800 319.996 C 291.580 319.838,290.655 319.596,289.745 319.457 C 288.835 319.319,287.062 318.664,285.805 318.003 C 284.547 317.341,283.329 316.800,283.098 316.800 C 280.592 316.800,276.485 313.112,275.563 310.034 C 274.917 307.877,273.202 305.586,270.984 303.915 C 269.710 302.955,268.857 301.952,268.600 301.110 C 268.380 300.390,268.084 299.620,267.942 299.400 C 267.800 299.180,267.393 298.016,267.038 296.813 C 266.683 295.611,265.972 293.991,265.459 293.213 C 264.947 292.436,264.192 291.080,263.783 290.200 C 262.919 288.341,260.746 286.000,259.886 286.000 C 258.733 286.000,254.981 284.630,253.500 283.668 C 252.038 282.718,251.797 282.244,251.945 280.600 C 252.031 279.640,254.017 275.600,254.402 275.600 C 254.552 275.600,254.993 275.008,255.383 274.284 C 255.772 273.560,256.700 272.569,257.443 272.082 C 258.862 271.152,261.573 267.761,261.590 266.895 C 261.596 266.617,261.764 266.077,261.966 265.695 C 262.746 264.211,263.231 260.264,263.597 252.394 C 264.029 243.136,264.385 239.200,264.793 239.200 C 264.946 239.200,265.324 238.435,265.633 237.500 C 265.941 236.565,266.791 235.170,267.521 234.400 C 268.251 233.630,269.281 232.536,269.810 231.970 C 270.906 230.795,276.775 228.800,279.134 228.800 C 282.400 228.800,286.576 223.817,288.773 217.296 C 289.421 215.373,290.315 212.810,290.759 211.600 C 292.150 207.811,292.798 203.634,292.837 198.200 C 292.858 195.340,292.996 191.290,293.145 189.200 C 293.443 184.992,293.085 179.867,292.235 176.200 C 291.929 174.880,291.436 172.630,291.139 171.200 C 290.617 168.683,288.184 165.286,286.523 164.753 C 286.235 164.661,285.863 162.936,285.586 160.400 C 285.333 158.090,284.955 154.760,284.747 153.000 C 284.538 151.240,284.228 146.380,284.058 142.200 C 283.835 136.714,283.563 134.099,283.080 132.800 C 282.501 131.241,282.411 129.056,282.406 116.486 C 282.401 103.776,282.319 101.849,281.751 100.981 C 281.298 100.290,280.998 98.451,280.760 94.895 C 280.369 89.058,279.891 86.953,278.364 84.349 C 277.767 83.332,276.788 80.902,276.188 78.949 C 275.464 76.594,274.577 74.715,273.549 73.363 C 272.697 72.243,272.000 71.118,272.000 70.863 C 272.000 70.608,271.864 70.400,271.698 70.400 C 271.531 70.400,271.155 69.856,270.861 69.192 C 269.628 66.407,265.797 65.258,257.568 65.207 C 256.890 65.202,255.848 64.548,254.533 63.300 C 251.273 60.208,250.096 59.265,248.443 58.422 C 247.581 57.982,245.940 56.711,244.795 55.596 C 242.859 53.709,239.545 51.707,237.200 51.005 C 236.650 50.841,235.250 50.277,234.088 49.753 C 232.927 49.229,231.648 48.800,231.248 48.800 C 230.230 48.800,228.070 48.079,226.325 47.156 C 223.005 45.402,221.406 45.189,208.600 44.804 C 194.616 44.383,194.821 44.383,191.000 44.854 " stroke="none" fill="#babec4" fill-rule="evenodd"></path><path id="path3" d="M192.000 46.641 C 189.690 46.937,186.765 47.454,185.500 47.790 C 184.235 48.125,182.075 48.677,180.700 49.016 C 179.325 49.355,177.570 49.791,176.800 49.984 C 174.127 50.656,171.133 51.200,170.107 51.200 C 169.540 51.200,168.519 51.615,167.838 52.123 C 166.235 53.319,164.008 54.343,162.332 54.656 C 161.599 54.792,160.010 55.411,158.800 56.031 C 157.590 56.651,155.610 57.460,154.400 57.828 C 151.912 58.585,140.000 64.304,140.000 64.741 C 140.000 64.897,139.145 65.261,138.100 65.548 C 135.231 66.338,135.068 66.401,135.303 66.637 C 135.696 67.029,139.638 65.645,141.646 64.410 C 142.727 63.744,143.689 63.200,143.782 63.200 C 143.876 63.200,145.808 62.319,148.076 61.241 C 150.344 60.164,153.287 58.926,154.616 58.491 C 155.945 58.055,157.925 57.259,159.016 56.721 C 160.107 56.184,161.810 55.511,162.800 55.226 C 165.058 54.575,167.872 53.236,168.455 52.534 C 168.698 52.240,169.371 52.000,169.949 52.000 C 170.527 52.000,172.260 51.727,173.800 51.392 C 175.340 51.058,177.500 50.590,178.600 50.352 C 181.541 49.716,182.983 49.358,187.200 48.216 C 195.880 45.867,215.054 45.863,220.184 48.210 C 222.945 49.473,225.181 50.137,229.000 50.828 C 230.540 51.107,232.340 51.721,233.000 52.192 C 234.250 53.084,237.750 54.800,238.320 54.800 C 238.500 54.800,239.606 55.618,240.776 56.617 C 241.947 57.616,243.732 59.003,244.743 59.699 C 245.755 60.394,246.856 61.187,247.191 61.460 C 247.526 61.733,248.695 62.684,249.788 63.574 C 252.348 65.658,254.127 66.486,256.384 66.645 L 258.200 66.774 256.200 66.287 C 253.989 65.749,252.511 65.018,251.600 64.012 C 251.270 63.647,249.920 62.551,248.600 61.575 C 247.280 60.599,245.851 59.485,245.425 59.100 C 244.998 58.715,244.510 58.400,244.340 58.400 C 244.169 58.400,242.921 57.410,241.565 56.200 C 240.209 54.990,238.807 53.994,238.450 53.987 C 237.797 53.975,235.409 52.857,232.800 51.343 C 232.030 50.897,230.500 50.422,229.400 50.289 C 227.200 50.022,223.124 48.795,221.291 47.847 C 217.875 46.081,201.599 45.410,192.000 46.641 M133.000 68.269 C 132.340 69.067,131.083 70.368,130.207 71.160 C 125.772 75.168,122.063 79.251,120.800 81.515 C 120.030 82.895,119.040 84.465,118.600 85.005 C 118.160 85.544,117.179 87.204,116.419 88.693 C 115.660 90.182,114.922 91.490,114.779 91.600 C 114.402 91.889,113.357 94.287,112.598 96.600 C 112.237 97.700,111.433 99.369,110.811 100.309 C 109.567 102.187,109.580 102.098,108.740 114.721 C 108.237 122.270,108.667 133.399,109.525 135.060 C 109.736 135.467,110.217 137.330,110.595 139.200 C 111.431 143.341,111.753 144.756,112.504 147.600 C 112.824 148.810,113.398 151.240,113.780 153.000 C 114.162 154.760,114.626 156.740,114.812 157.400 C 114.998 158.060,115.346 159.926,115.586 161.546 C 116.080 164.888,116.162 164.697,112.947 167.697 C 109.361 171.043,108.271 174.321,108.192 182.000 L 108.129 188.200 108.366 182.400 C 108.601 176.653,110.002 171.200,111.243 171.200 C 111.439 171.200,111.600 170.944,111.600 170.631 C 111.600 170.319,112.769 168.859,114.197 167.388 C 116.151 165.376,116.747 164.502,116.606 163.857 C 116.503 163.386,116.239 161.625,116.019 159.944 C 115.800 158.263,115.362 156.103,115.047 155.144 C 114.731 154.185,114.358 152.770,114.217 152.000 C 113.881 150.164,112.470 144.128,112.020 142.600 C 111.826 141.940,111.443 140.050,111.169 138.400 C 110.896 136.750,110.554 135.220,110.408 135.000 C 109.297 133.317,109.128 131.027,109.356 120.774 C 109.720 104.469,109.893 102.393,110.986 101.200 C 112.140 99.940,112.539 99.158,113.625 96.019 C 114.488 93.525,114.825 92.888,118.598 86.600 C 119.654 84.840,120.873 82.770,121.305 82.000 C 121.738 81.230,122.219 80.510,122.373 80.400 C 122.527 80.290,123.396 79.210,124.303 78.000 C 125.211 76.790,126.726 75.170,127.670 74.400 C 130.913 71.755,132.400 70.306,132.400 69.789 C 132.400 69.504,132.940 68.817,133.600 68.261 C 134.789 67.261,135.079 66.792,134.500 66.809 C 134.335 66.813,133.660 67.470,133.000 68.269 M260.400 67.023 C 261.858 67.340,265.934 67.417,265.753 67.124 C 265.643 66.946,264.258 66.821,262.676 66.846 C 261.094 66.872,260.070 66.952,260.400 67.023 M266.856 68.090 C 267.217 68.384,268.044 69.789,268.693 71.212 C 269.704 73.426,270.467 74.556,273.203 77.883 C 273.421 78.149,273.600 78.608,273.600 78.903 C 273.600 79.198,273.749 79.611,273.930 79.820 C 274.112 80.029,274.461 80.920,274.707 81.800 C 275.850 85.904,276.495 87.908,277.086 89.194 C 278.890 93.118,279.238 96.953,279.535 116.200 C 279.687 126.047,279.965 133.656,280.185 134.000 C 280.397 134.330,280.708 137.570,280.875 141.200 C 281.043 144.830,281.352 149.150,281.563 150.800 C 281.773 152.450,282.227 156.320,282.570 159.400 C 283.185 164.913,283.215 165.017,284.497 166.109 C 287.237 168.442,287.490 168.791,287.734 170.569 C 287.869 171.555,288.356 173.405,288.817 174.681 C 290.928 180.530,290.986 180.948,290.935 190.000 C 290.882 199.234,290.852 199.424,287.570 211.000 C 285.562 218.082,285.167 218.970,281.932 223.665 C 281.680 224.031,280.467 224.636,279.237 225.009 C 278.007 225.382,276.190 225.937,275.200 226.243 C 271.924 227.255,268.601 229.219,267.578 230.748 C 267.044 231.546,265.853 232.920,264.933 233.800 C 263.172 235.483,262.070 239.442,262.482 242.600 C 262.595 243.472,262.717 243.144,262.929 241.400 C 263.373 237.729,264.021 234.800,264.389 234.800 C 264.846 234.800,267.600 232.007,267.600 231.543 C 267.600 230.213,271.135 228.313,277.189 226.389 C 283.460 224.397,285.128 222.176,287.991 212.000 C 288.270 211.010,288.817 209.120,289.208 207.800 C 291.240 200.932,291.600 198.155,291.600 189.332 C 291.600 181.564,291.355 179.568,289.940 175.800 C 289.527 174.700,288.960 172.673,288.679 171.295 C 288.129 168.593,287.785 168.052,285.433 166.175 L 283.898 164.950 283.364 159.775 C 283.071 156.929,282.554 152.080,282.216 149.000 C 281.878 145.920,281.601 141.591,281.601 139.380 C 281.600 136.698,281.434 135.194,281.100 134.861 C 280.724 134.485,280.537 130.209,280.346 117.681 C 280.206 108.506,279.972 100.280,279.826 99.400 C 279.679 98.520,279.382 96.540,279.165 95.000 C 278.799 92.396,277.478 87.919,276.806 87.000 C 276.645 86.780,276.197 85.340,275.810 83.800 C 275.422 82.260,274.767 80.237,274.353 79.304 C 273.939 78.372,273.600 77.499,273.600 77.366 C 273.600 77.232,272.886 76.312,272.013 75.320 C 271.140 74.329,269.864 72.364,269.177 70.954 C 268.490 69.544,267.540 68.202,267.064 67.973 C 266.311 67.609,266.284 67.624,266.856 68.090 M108.464 192.400 C 108.401 196.809,109.255 202.625,110.520 206.400 C 111.072 208.050,111.735 210.480,111.991 211.800 C 113.100 217.498,114.974 221.867,117.800 225.336 C 118.511 226.209,122.833 228.000,124.228 228.000 C 126.274 228.000,129.600 231.519,129.600 233.682 C 129.600 234.277,130.622 237.177,131.650 239.497 C 132.063 240.431,132.606 242.051,132.857 243.097 C 133.107 244.144,133.452 245.450,133.624 246.000 L 133.937 247.000 133.968 245.997 C 134.009 244.705,132.357 238.727,131.316 236.400 C 130.874 235.410,130.261 233.719,129.956 232.642 C 129.115 229.680,127.550 228.374,123.275 227.066 C 119.011 225.762,118.092 225.121,116.781 222.534 C 116.241 221.470,115.665 220.540,115.500 220.467 C 115.335 220.393,115.200 220.078,115.200 219.767 C 115.200 219.455,115.065 219.198,114.900 219.197 C 114.562 219.193,113.483 215.718,112.788 212.400 C 112.217 209.673,111.657 207.534,110.904 205.200 C 109.635 201.270,109.198 199.037,109.160 196.280 C 109.092 191.308,108.525 188.146,108.464 192.400 M261.884 249.400 C 261.577 254.075,261.074 257.376,260.421 259.000 C 260.244 259.440,259.897 260.303,259.650 260.919 C 259.402 261.534,259.200 262.444,259.200 262.940 C 259.200 264.445,257.331 267.695,255.383 269.578 C 253.600 271.301,250.400 276.150,250.400 277.129 C 250.400 277.394,250.220 277.968,250.000 278.405 C 249.780 278.842,249.420 279.558,249.200 279.995 C 247.550 283.273,250.688 287.452,254.888 287.570 C 258.426 287.668,263.200 292.513,263.200 296.003 C 263.200 296.411,264.336 298.385,264.810 298.800 C 265.479 299.385,266.722 301.552,266.991 302.600 C 267.166 303.283,267.384 303.566,267.497 303.256 C 267.712 302.669,266.047 298.800,265.580 298.800 C 265.424 298.800,265.063 298.215,264.778 297.500 C 261.570 289.473,259.041 286.800,254.655 286.800 C 247.644 286.800,248.385 277.981,256.073 269.915 C 258.248 267.634,259.532 265.292,260.359 262.100 C 260.602 261.165,260.974 259.725,261.186 258.900 C 261.912 256.073,262.469 250.599,262.334 247.600 C 262.206 244.731,262.186 244.809,261.884 249.400 M134.023 248.000 C 134.006 248.900,136.151 255.484,136.612 255.945 C 136.956 256.289,136.806 255.159,136.410 254.419 C 136.196 254.018,135.575 252.185,135.031 250.345 C 134.488 248.505,134.034 247.450,134.023 248.000 M136.856 257.000 C 136.856 257.440,137.011 258.160,137.200 258.600 L 137.544 259.400 137.544 258.600 C 137.544 258.160,137.389 257.440,137.200 257.000 L 136.856 256.200 136.856 257.000 M137.690 261.600 C 137.684 262.590,137.824 263.850,138.000 264.400 L 138.320 265.400 138.330 264.400 C 138.336 263.850,138.197 262.590,138.020 261.600 L 137.700 259.800 137.690 261.600 M138.404 265.815 C 138.406 266.027,139.026 266.978,139.783 267.929 C 140.539 268.880,141.375 270.320,141.642 271.129 C 141.912 271.951,142.980 273.403,144.061 274.418 C 146.641 276.844,148.749 280.967,148.250 282.615 C 147.299 285.763,147.146 285.951,144.459 287.283 C 140.267 289.360,138.619 291.273,137.798 295.014 C 137.375 296.943,136.708 298.120,135.253 299.508 C 134.499 300.227,133.969 300.902,134.075 301.008 C 134.684 301.617,137.611 298.000,138.147 295.975 C 139.309 291.590,141.317 289.017,144.365 288.012 C 147.540 286.964,148.849 285.379,148.930 282.487 C 148.969 281.095,148.812 279.846,148.579 279.687 C 148.348 279.529,147.830 278.680,147.429 277.800 C 147.028 276.920,145.859 275.390,144.832 274.400 C 143.805 273.410,142.483 271.610,141.894 270.400 C 140.858 268.269,138.396 265.035,138.404 265.815 M133.449 302.215 C 133.312 302.573,133.216 303.256,133.236 303.733 C 133.262 304.347,133.385 304.208,133.659 303.256 C 134.057 301.872,133.894 301.058,133.449 302.215 M267.600 304.364 C 267.600 304.995,269.194 307.714,270.024 308.498 C 270.430 308.882,271.485 310.412,272.369 311.898 C 275.037 316.386,280.174 320.400,283.247 320.400 C 283.522 320.400,284.749 320.733,285.973 321.140 C 290.632 322.688,293.474 323.535,295.600 324.008 C 296.810 324.278,298.160 324.651,298.600 324.838 C 299.040 325.025,300.300 325.525,301.400 325.950 C 302.500 326.374,304.796 327.369,306.502 328.161 C 308.208 328.952,309.755 329.600,309.940 329.600 C 310.283 329.600,312.390 330.519,313.755 331.263 C 314.170 331.490,315.070 331.983,315.755 332.358 C 317.270 333.189,320.399 334.134,320.686 333.847 C 320.801 333.733,320.378 333.517,319.747 333.368 C 319.116 333.218,317.104 332.309,315.276 331.348 C 313.447 330.387,311.769 329.600,311.546 329.600 C 311.324 329.600,309.243 328.700,306.922 327.600 C 304.602 326.500,302.535 325.600,302.330 325.600 C 302.124 325.600,301.114 325.216,300.085 324.748 C 299.056 324.279,296.861 323.551,295.207 323.131 C 291.819 322.269,290.958 322.025,287.000 320.799 C 285.460 320.322,283.480 319.739,282.600 319.504 C 281.720 319.269,280.522 318.745,279.938 318.338 C 279.354 317.932,278.675 317.600,278.428 317.600 C 277.781 317.600,274.706 314.402,274.001 312.995 C 273.671 312.338,273.311 311.710,273.200 311.600 C 273.089 311.490,272.749 310.914,272.443 310.321 C 272.137 309.727,271.103 308.377,270.145 307.321 C 269.187 306.264,268.403 305.186,268.402 304.924 C 268.401 304.662,268.220 304.336,268.000 304.200 C 267.780 304.064,267.600 304.138,267.600 304.364 M132.273 306.341 C 131.872 307.250,131.062 308.500,130.473 309.120 C 129.206 310.451,128.525 311.307,127.232 313.200 C 124.491 317.212,121.904 319.035,117.600 319.987 C 114.046 320.772,112.369 321.244,109.400 322.294 C 107.860 322.839,105.797 323.447,104.815 323.646 C 102.825 324.049,100.369 325.225,99.156 326.355 C 98.716 326.765,97.241 327.326,95.878 327.601 C 93.624 328.058,90.533 329.370,86.800 331.455 C 86.030 331.885,84.590 332.480,83.600 332.776 C 79.174 334.102,78.032 334.548,75.400 335.978 C 73.860 336.815,72.060 337.635,71.400 337.799 C 70.740 337.964,70.423 338.181,70.697 338.281 C 71.454 338.560,73.940 337.626,76.184 336.218 C 77.293 335.523,79.010 334.721,80.000 334.435 C 80.990 334.150,82.213 333.755,82.719 333.558 C 83.224 333.361,83.923 333.200,84.272 333.200 C 84.822 333.200,86.673 332.325,91.800 329.640 C 93.164 328.926,96.207 328.044,97.400 328.017 C 97.840 328.007,98.740 327.527,99.400 326.949 C 100.807 325.719,102.603 324.898,104.929 324.425 C 105.848 324.237,107.860 323.639,109.400 323.094 C 112.526 321.989,114.279 321.499,117.800 320.748 C 119.120 320.466,120.650 320.004,121.200 319.720 C 121.750 319.437,122.380 319.203,122.600 319.201 C 123.128 319.195,125.103 317.323,126.600 315.409 C 127.260 314.565,128.760 312.692,129.932 311.247 C 132.108 308.566,133.317 306.291,133.114 305.263 C 133.051 304.947,132.673 305.432,132.273 306.341 M322.400 334.736 C 323.170 335.124,324.610 335.899,325.600 336.458 C 326.590 337.017,328.210 337.700,329.200 337.976 C 331.236 338.543,332.704 339.205,334.950 340.571 C 335.803 341.090,337.241 341.632,338.145 341.777 C 339.049 341.921,340.969 342.720,342.412 343.552 C 343.855 344.384,346.378 345.563,348.018 346.173 C 349.658 346.782,352.155 347.825,353.566 348.490 C 357.498 350.344,361.638 351.999,362.355 352.005 C 362.710 352.007,363.720 352.417,364.600 352.916 C 365.480 353.414,367.010 354.063,368.000 354.357 C 371.269 355.330,372.185 355.744,373.670 356.921 C 374.479 357.562,375.379 357.998,375.670 357.890 C 376.037 357.753,375.955 357.593,375.401 357.366 C 374.962 357.186,374.203 356.639,373.715 356.152 C 373.228 355.664,371.787 354.973,370.514 354.615 C 367.436 353.750,366.043 353.186,365.398 352.541 C 365.104 352.247,363.849 351.742,362.609 351.419 C 361.369 351.096,358.789 350.085,356.877 349.171 C 354.965 348.258,352.140 347.066,350.600 346.522 C 349.060 345.979,346.270 344.726,344.400 343.738 C 340.825 341.849,338.259 340.816,337.118 340.806 C 336.742 340.803,335.556 340.282,334.482 339.648 C 333.408 339.015,331.195 338.081,329.564 337.572 C 327.934 337.064,326.508 336.517,326.396 336.356 C 326.073 335.893,322.142 333.998,321.542 334.016 C 321.244 334.025,321.630 334.349,322.400 334.736 M66.326 339.973 C 64.994 340.858,63.338 341.585,62.326 341.728 C 61.377 341.863,58.890 342.839,56.800 343.898 C 54.710 344.957,52.010 346.155,50.800 346.558 C 49.590 346.962,46.800 348.154,44.600 349.207 C 42.400 350.261,39.880 351.337,39.000 351.599 C 38.120 351.861,36.500 352.484,35.400 352.982 C 34.300 353.480,32.950 354.081,32.400 354.317 C 31.652 354.638,31.581 354.753,32.119 354.773 C 32.515 354.788,33.578 354.443,34.481 354.007 C 35.384 353.570,36.770 353.098,37.561 352.957 C 38.353 352.816,41.250 351.635,44.000 350.333 C 46.750 349.031,49.360 347.798,49.800 347.592 C 50.240 347.386,51.500 346.923,52.600 346.562 C 54.699 345.873,58.059 344.402,58.400 344.022 C 58.877 343.492,60.380 342.884,62.853 342.220 C 64.312 341.828,66.022 341.056,66.653 340.504 C 67.284 339.952,68.340 339.260,69.000 338.966 C 69.881 338.573,69.987 338.435,69.400 338.447 C 68.960 338.455,67.577 339.142,66.326 339.973 M28.600 355.466 C 27.940 355.815,27.097 356.365,26.726 356.688 C 26.356 357.011,25.366 357.537,24.526 357.856 L 23.000 358.436 24.513 358.241 C 25.366 358.131,26.701 357.512,27.571 356.823 C 28.420 356.150,29.359 355.597,29.658 355.594 C 29.956 355.591,30.470 355.413,30.800 355.200 C 31.850 354.521,29.954 354.751,28.600 355.466 M378.000 358.594 C 378.990 358.921,380.070 359.185,380.400 359.182 C 381.595 359.170,379.881 358.501,378.000 358.245 L 376.200 358.001 378.000 358.594 M19.800 358.867 C 18.029 359.464,16.354 360.272,15.000 361.181 C 14.340 361.625,12.810 362.297,11.600 362.674 C 10.390 363.051,8.410 363.954,7.200 364.679 C 5.990 365.404,4.640 366.001,4.200 366.005 C 3.760 366.009,3.130 366.187,2.800 366.400 C 2.267 366.745,2.267 366.788,2.800 366.788 C 3.855 366.788,6.789 365.787,7.506 365.183 C 8.211 364.589,9.958 363.799,13.200 362.609 C 14.190 362.245,15.630 361.537,16.400 361.035 C 17.170 360.533,18.430 359.920,19.200 359.673 C 19.970 359.426,21.140 359.052,21.800 358.843 C 22.912 358.491,22.926 358.463,22.000 358.463 C 21.450 358.463,20.460 358.645,19.800 358.867 M382.000 359.716 C 382.550 359.970,383.090 360.286,383.200 360.419 C 383.527 360.813,386.493 362.285,388.000 362.801 C 390.049 363.503,391.251 364.081,392.600 365.012 C 393.982 365.966,396.306 366.813,397.428 366.772 C 397.853 366.757,397.300 366.432,396.200 366.052 C 395.100 365.671,393.480 364.901,392.600 364.340 C 391.720 363.779,389.847 362.911,388.438 362.412 C 387.029 361.913,385.059 360.986,384.060 360.352 C 383.061 359.718,381.964 359.212,381.622 359.227 C 381.250 359.243,381.403 359.440,382.000 359.716 " stroke="none" fill="#acacb4" fill-rule="evenodd"></path><path id="path4" d="M195.490 46.844 C 193.119 47.026,189.429 47.641,187.290 48.209 C 182.864 49.386,181.423 49.741,178.600 50.352 C 177.500 50.590,175.340 51.058,173.800 51.392 C 172.260 51.727,170.527 52.000,169.949 52.000 C 169.371 52.000,168.698 52.240,168.455 52.534 C 167.872 53.236,165.058 54.575,162.800 55.226 C 161.810 55.511,160.107 56.184,159.016 56.721 C 157.925 57.259,155.945 58.055,154.616 58.491 C 153.287 58.926,150.344 60.164,148.076 61.241 C 145.808 62.319,143.886 63.200,143.805 63.200 C 143.724 63.200,142.609 63.807,141.329 64.550 C 140.048 65.292,138.101 66.138,137.002 66.429 C 135.017 66.956,132.400 68.882,132.400 69.818 C 132.400 70.309,130.871 71.790,127.670 74.400 C 126.726 75.170,125.211 76.790,124.303 78.000 C 123.396 79.210,122.527 80.290,122.373 80.400 C 122.219 80.510,121.738 81.230,121.305 82.000 C 120.873 82.770,119.654 84.840,118.598 86.600 C 114.825 92.888,114.488 93.525,113.625 96.019 C 112.539 99.158,112.140 99.940,110.986 101.200 C 109.893 102.393,109.720 104.469,109.356 120.774 C 109.128 131.027,109.297 133.317,110.408 135.000 C 110.554 135.220,110.896 136.750,111.169 138.400 C 111.443 140.050,111.826 141.940,112.020 142.600 C 112.470 144.128,113.881 150.164,114.217 152.000 C 114.358 152.770,114.731 154.185,115.047 155.144 C 115.362 156.103,115.800 158.263,116.019 159.944 C 116.239 161.625,116.503 163.386,116.606 163.857 C 116.747 164.502,116.151 165.376,114.197 167.388 C 112.769 168.859,111.600 170.319,111.600 170.631 C 111.600 170.944,111.440 171.200,111.245 171.200 C 111.050 171.200,110.306 172.649,109.592 174.421 L 108.293 177.642 108.554 184.721 C 108.877 193.490,109.402 200.160,109.915 202.000 C 110.129 202.770,110.570 204.210,110.895 205.200 C 111.646 207.493,112.207 209.626,112.788 212.400 C 113.483 215.718,114.562 219.193,114.900 219.197 C 115.065 219.198,115.200 219.455,115.200 219.767 C 115.200 220.078,115.335 220.393,115.500 220.467 C 115.665 220.540,116.241 221.470,116.781 222.534 C 118.092 225.121,119.011 225.762,123.275 227.066 C 127.550 228.374,129.115 229.680,129.956 232.642 C 130.261 233.719,130.872 235.410,131.312 236.400 C 132.378 238.796,133.513 242.808,134.026 245.987 C 134.255 247.410,135.140 250.689,135.992 253.273 C 136.843 255.856,137.765 259.692,138.041 261.796 C 138.480 265.155,138.698 265.804,139.828 267.124 C 140.536 267.951,141.530 269.522,142.038 270.614 C 142.545 271.706,143.802 273.410,144.830 274.400 C 145.859 275.390,147.028 276.920,147.429 277.800 C 147.830 278.680,148.348 279.529,148.579 279.687 C 148.812 279.846,148.969 281.095,148.930 282.487 C 148.849 285.379,147.540 286.964,144.365 288.012 C 141.316 289.018,139.309 291.590,138.147 295.977 C 137.706 297.639,137.157 298.539,135.825 299.777 C 134.371 301.130,133.995 301.800,133.565 303.800 C 132.820 307.274,132.313 308.314,129.932 311.247 C 128.760 312.692,127.260 314.565,126.600 315.409 C 125.103 317.323,123.128 319.195,122.600 319.201 C 122.380 319.203,121.750 319.437,121.200 319.720 C 120.650 320.004,119.120 320.466,117.800 320.748 C 114.279 321.499,112.526 321.989,109.400 323.094 C 107.860 323.639,105.848 324.237,104.929 324.425 C 102.603 324.898,100.807 325.719,99.400 326.949 C 98.740 327.527,97.840 328.007,97.400 328.017 C 96.207 328.044,93.164 328.926,91.800 329.640 C 86.673 332.325,84.822 333.200,84.272 333.200 C 83.923 333.200,83.224 333.361,82.719 333.558 C 82.213 333.755,80.990 334.150,80.000 334.435 C 79.010 334.721,77.239 335.557,76.065 336.294 C 74.891 337.031,72.821 337.913,71.465 338.253 C 69.005 338.871,67.668 339.533,66.294 340.813 C 65.894 341.186,64.359 341.815,62.884 342.211 C 60.384 342.883,58.878 343.491,58.400 344.022 C 58.059 344.402,54.699 345.873,52.600 346.562 C 51.500 346.923,50.240 347.386,49.800 347.592 C 49.360 347.798,46.750 349.031,44.000 350.333 C 41.250 351.635,38.353 352.816,37.561 352.957 C 36.770 353.098,35.384 353.570,34.481 354.007 C 33.578 354.443,32.605 354.803,32.319 354.806 C 31.256 354.818,28.871 355.851,27.512 356.887 C 26.741 357.476,25.590 358.067,24.955 358.201 C 19.905 359.268,18.399 359.770,16.400 361.051 C 15.630 361.544,14.190 362.245,13.200 362.609 C 9.958 363.799,8.211 364.589,7.506 365.183 C 6.531 366.004,3.710 366.787,1.700 366.794 C 0.395 366.799,0.000 366.952,0.000 367.455 C 0.000 369.238,9.598 367.097,10.207 365.178 C 10.341 364.755,11.028 364.402,12.029 364.242 C 12.912 364.101,13.942 363.819,14.317 363.617 C 14.693 363.414,15.477 363.149,16.059 363.027 C 16.641 362.905,17.834 362.207,18.710 361.476 C 19.971 360.422,20.914 360.043,23.251 359.652 C 28.140 358.834,29.453 358.358,30.171 357.141 C 30.639 356.350,31.253 355.965,32.313 355.799 C 33.131 355.672,34.451 355.395,35.246 355.184 C 36.042 354.973,37.122 354.797,37.646 354.794 C 38.898 354.786,41.037 354.019,42.926 352.900 C 43.762 352.405,44.521 352.000,44.613 352.000 C 44.800 352.000,48.920 350.139,52.657 348.366 C 54.009 347.725,55.390 347.200,55.726 347.200 C 56.063 347.200,57.845 346.431,59.687 345.491 C 61.529 344.551,63.838 343.525,64.818 343.211 C 65.798 342.897,67.271 342.226,68.092 341.720 C 68.913 341.214,69.834 340.800,70.139 340.800 C 71.563 340.800,78.177 337.788,79.600 336.491 C 80.150 335.990,81.320 335.390,82.200 335.158 C 83.080 334.926,84.520 334.547,85.400 334.314 C 88.567 333.478,89.590 333.033,90.885 331.926 C 92.157 330.837,93.635 330.246,97.766 329.171 C 98.848 328.889,100.288 328.185,100.966 327.605 C 101.809 326.886,103.088 326.385,105.000 326.026 C 108.103 325.443,113.588 323.733,114.180 323.165 C 114.389 322.964,115.088 322.800,115.734 322.800 C 116.379 322.800,117.558 322.629,118.354 322.420 C 124.365 320.842,123.863 321.154,128.029 316.407 C 129.223 315.046,130.369 313.633,130.575 313.267 C 130.781 312.900,131.367 312.271,131.877 311.869 C 133.462 310.620,134.753 306.907,134.786 303.506 C 134.798 302.194,135.008 301.876,136.500 300.906 C 138.737 299.451,138.964 299.119,139.564 296.415 C 139.887 294.958,140.509 293.624,141.266 292.760 C 141.922 292.012,142.728 291.009,143.055 290.531 C 143.430 289.984,144.273 289.560,145.326 289.388 C 152.858 288.158,153.435 281.376,146.646 273.853 C 145.131 272.174,143.360 269.754,142.711 268.475 C 141.871 266.821,141.194 266.022,140.365 265.709 C 139.242 265.285,139.200 265.175,139.200 262.654 C 139.200 258.757,137.903 252.292,136.580 249.600 C 135.761 247.932,135.457 246.740,134.340 240.800 C 133.781 237.832,132.447 234.000,131.591 232.903 C 131.205 232.410,130.778 231.408,130.641 230.677 C 130.166 228.148,127.495 225.895,124.400 225.413 C 121.775 225.004,118.852 223.609,118.571 222.631 C 118.440 222.174,117.807 220.686,117.166 219.325 C 116.525 217.964,116.000 216.732,116.000 216.587 C 116.000 216.442,115.662 215.846,115.249 215.262 C 114.836 214.678,114.376 213.390,114.228 212.400 C 113.550 207.874,111.788 201.147,110.795 199.296 C 110.156 198.103,110.000 197.040,110.000 193.874 C 110.000 191.708,109.798 188.227,109.552 186.138 C 108.927 180.839,109.628 176.798,111.506 174.863 C 112.657 173.678,114.400 170.596,114.400 169.746 C 114.400 169.582,115.081 168.807,115.914 168.024 C 118.434 165.653,118.593 165.057,118.031 160.113 C 117.479 155.250,116.244 149.786,115.158 147.400 C 114.485 145.921,113.748 142.585,113.348 139.200 C 112.974 136.034,112.235 133.611,111.319 132.546 L 110.348 131.416 110.524 122.208 C 110.657 115.265,110.868 112.361,111.383 110.400 C 111.759 108.970,112.244 106.630,112.462 105.200 C 112.680 103.770,113.102 102.060,113.400 101.400 C 113.697 100.740,114.065 99.570,114.216 98.800 C 114.368 98.030,114.627 97.220,114.792 97.000 C 114.957 96.780,116.089 94.710,117.306 92.400 C 121.065 85.269,121.273 84.914,122.846 82.930 C 123.688 81.868,124.992 80.082,125.745 78.959 C 126.498 77.837,127.721 76.543,128.463 76.085 C 129.204 75.627,130.196 74.835,130.667 74.326 C 131.137 73.817,132.000 72.966,132.584 72.436 C 133.168 71.906,133.749 70.955,133.875 70.324 C 134.204 68.681,135.764 67.600,137.805 67.600 C 139.946 67.600,142.094 66.715,143.121 65.410 C 143.558 64.855,144.126 64.400,144.383 64.400 C 144.641 64.400,145.835 63.950,147.037 63.400 C 148.240 62.850,149.381 62.400,149.572 62.400 C 149.764 62.400,151.329 61.680,153.049 60.800 C 154.770 59.920,156.577 59.200,157.065 59.200 C 157.553 59.200,158.050 59.043,158.168 58.852 C 158.286 58.660,158.914 58.397,159.562 58.268 C 160.211 58.138,161.519 57.674,162.471 57.237 C 164.717 56.203,171.497 54.000,172.429 54.000 C 172.827 54.000,174.378 53.574,175.876 53.054 C 177.374 52.533,179.680 51.889,181.000 51.621 C 184.635 50.885,186.350 50.501,189.200 49.785 C 198.325 47.492,200.215 47.200,205.904 47.200 C 211.085 47.200,214.141 47.667,216.400 48.803 C 219.108 50.165,223.132 51.399,226.800 51.993 C 230.351 52.569,231.330 52.873,232.600 53.796 C 233.260 54.276,234.650 54.981,235.688 55.363 C 236.727 55.745,238.118 56.539,238.780 57.129 C 240.327 58.506,240.569 58.703,243.200 60.720 C 244.410 61.648,245.585 62.555,245.810 62.735 C 246.036 62.916,246.756 63.410,247.410 63.832 C 248.065 64.254,248.992 65.061,249.472 65.624 C 250.770 67.150,252.802 67.630,259.000 67.878 C 265.748 68.147,265.684 68.118,266.362 71.174 C 266.750 72.925,267.210 73.874,267.989 74.530 C 268.587 75.032,269.759 76.513,270.595 77.820 C 271.432 79.127,272.376 80.387,272.695 80.620 C 273.013 80.853,273.455 81.934,273.676 83.022 C 274.751 88.305,275.575 91.243,276.415 92.782 C 277.933 95.566,278.059 97.402,278.421 122.000 C 278.696 140.716,278.920 147.106,279.410 150.200 C 279.758 152.400,280.371 156.583,280.772 159.495 C 281.573 165.307,281.982 166.247,284.410 167.854 C 285.661 168.682,286.000 169.156,286.000 170.076 C 286.000 171.180,286.267 172.579,287.282 176.800 C 287.661 178.374,288.067 179.349,289.650 182.495 C 290.273 183.731,290.087 197.830,289.441 198.366 C 288.812 198.888,287.956 201.436,287.214 205.000 C 286.939 206.320,286.567 207.850,286.387 208.400 C 286.208 208.950,285.943 210.107,285.799 210.971 C 285.565 212.375,284.593 214.956,283.567 216.895 C 283.365 217.277,283.200 217.775,283.200 218.003 C 283.200 220.086,279.228 223.306,275.494 224.251 C 273.076 224.862,269.938 226.289,269.667 226.900 C 269.593 227.065,269.291 227.200,268.996 227.200 C 268.349 227.200,266.000 229.960,266.000 230.720 C 266.000 231.342,265.491 231.881,263.753 233.103 C 262.093 234.269,261.707 235.449,261.431 240.200 C 260.809 250.889,260.639 252.657,260.163 253.400 C 259.125 255.019,257.200 261.995,257.200 264.139 C 257.200 264.546,256.704 265.356,256.099 265.940 C 255.493 266.523,254.467 267.720,253.819 268.600 C 253.171 269.480,252.337 270.474,251.965 270.808 C 250.976 271.698,249.848 273.887,249.048 276.470 C 248.661 277.719,247.894 279.249,247.343 279.870 C 244.156 283.467,248.699 289.200,254.736 289.200 C 256.114 289.200,256.866 289.421,257.425 289.991 C 260.248 292.873,260.748 293.602,261.409 295.800 C 261.897 297.420,262.594 298.655,263.556 299.600 C 265.288 301.303,266.000 302.560,266.000 303.917 C 266.000 305.457,266.822 307.630,267.998 309.200 C 268.574 309.970,269.699 311.680,270.496 313.000 C 273.927 318.678,276.172 320.185,284.600 322.470 C 285.480 322.708,286.740 323.137,287.400 323.423 C 289.434 324.303,292.124 325.132,293.800 325.396 C 297.514 325.981,299.451 326.586,302.297 328.050 C 303.954 328.902,305.635 329.600,306.032 329.600 C 306.428 329.600,306.858 329.770,306.986 329.977 C 307.114 330.184,308.029 330.475,309.020 330.624 C 310.025 330.775,311.037 331.201,311.310 331.589 C 311.901 332.428,314.344 333.668,316.800 334.375 C 319.902 335.268,320.946 335.727,322.800 337.017 C 324.829 338.428,326.042 338.925,329.180 339.629 C 330.379 339.898,331.697 340.432,332.109 340.816 C 332.851 341.507,334.520 342.193,338.000 343.236 C 338.990 343.533,340.005 343.961,340.255 344.188 C 341.666 345.464,342.472 346.000,342.981 346.000 C 343.295 346.000,343.655 346.166,343.781 346.369 C 343.906 346.572,344.592 346.858,345.305 347.005 C 346.915 347.336,353.128 349.996,358.148 352.503 C 360.113 353.484,364.149 354.670,369.230 355.759 C 369.797 355.881,370.787 356.482,371.430 357.095 C 372.644 358.252,373.886 358.714,378.574 359.751 C 380.136 360.097,381.500 360.636,381.696 360.985 C 382.146 361.789,384.385 362.886,387.400 363.779 C 388.777 364.186,390.230 364.939,390.808 365.545 C 392.794 367.624,400.000 369.124,400.000 367.458 C 400.000 366.952,399.613 366.800,398.328 366.800 C 396.336 366.800,394.245 366.147,392.600 365.012 C 391.251 364.081,390.049 363.503,388.000 362.801 C 386.459 362.273,383.515 360.805,383.200 360.407 C 382.893 360.019,380.884 359.338,377.800 358.576 C 376.260 358.196,374.370 357.406,373.600 356.821 C 372.176 355.738,371.206 355.311,368.000 354.357 C 367.010 354.063,365.480 353.414,364.600 352.916 C 363.720 352.417,362.710 352.007,362.355 352.005 C 361.638 351.999,357.498 350.344,353.566 348.490 C 352.155 347.825,349.658 346.782,348.018 346.173 C 346.378 345.563,343.855 344.384,342.412 343.552 C 340.969 342.720,339.049 341.921,338.145 341.777 C 337.241 341.632,335.803 341.090,334.950 340.571 C 332.664 339.181,331.251 338.547,328.833 337.830 C 327.642 337.476,325.799 336.653,324.739 336.000 C 323.678 335.348,321.593 334.439,320.105 333.981 C 318.617 333.522,316.680 332.773,315.800 332.316 C 314.920 331.859,313.660 331.230,313.000 330.917 C 312.340 330.604,311.487 330.180,311.105 329.974 C 310.723 329.768,310.229 329.600,310.007 329.600 C 309.785 329.600,308.208 328.952,306.502 328.161 C 304.796 327.369,302.500 326.374,301.400 325.950 C 300.300 325.525,299.040 325.025,298.600 324.838 C 298.160 324.651,296.810 324.278,295.600 324.008 C 293.474 323.535,290.632 322.688,285.973 321.140 C 284.749 320.733,283.522 320.400,283.247 320.400 C 280.174 320.400,275.037 316.386,272.369 311.898 C 271.485 310.412,270.430 308.882,270.024 308.498 C 269.037 307.565,267.887 305.402,267.207 303.200 C 266.723 301.635,265.516 299.418,264.810 298.800 C 264.336 298.385,263.200 296.411,263.200 296.003 C 263.200 292.513,258.426 287.668,254.888 287.570 C 250.688 287.452,247.550 283.273,249.200 279.995 C 249.420 279.558,249.780 278.842,250.000 278.405 C 250.220 277.968,250.400 277.394,250.400 277.129 C 250.400 276.150,253.600 271.301,255.383 269.578 C 257.331 267.695,259.200 264.445,259.200 262.940 C 259.200 262.122,259.370 261.578,260.428 259.000 C 261.075 257.423,261.582 253.696,262.004 247.400 C 262.707 236.910,262.972 235.686,264.938 233.800 C 265.856 232.920,267.044 231.546,267.578 230.748 C 268.601 229.219,271.924 227.255,275.200 226.243 C 276.190 225.937,278.007 225.382,279.237 225.009 C 280.467 224.636,281.680 224.031,281.932 223.665 C 285.167 218.970,285.562 218.082,287.570 211.000 C 290.852 199.424,290.882 199.234,290.935 190.000 C 290.986 180.948,290.928 180.530,288.817 174.681 C 288.356 173.405,287.869 171.555,287.734 170.569 C 287.490 168.791,287.237 168.442,284.497 166.109 C 283.215 165.017,283.185 164.913,282.570 159.400 C 282.227 156.320,281.773 152.450,281.563 150.800 C 281.352 149.150,281.043 144.830,280.875 141.200 C 280.708 137.570,280.397 134.330,280.185 134.000 C 279.965 133.656,279.687 126.047,279.535 116.200 C 279.238 96.953,278.890 93.118,277.086 89.194 C 276.495 87.908,275.850 85.904,274.707 81.800 C 274.461 80.920,274.112 80.029,273.930 79.820 C 273.749 79.611,273.600 79.198,273.600 78.903 C 273.600 78.608,273.420 78.149,273.200 77.883 C 270.530 74.656,269.461 73.062,268.586 71.001 C 267.201 67.744,266.777 67.542,260.200 67.004 C 254.038 66.499,252.936 66.136,249.788 63.574 C 248.695 62.684,247.526 61.733,247.191 61.460 C 246.856 61.187,245.755 60.394,244.743 59.699 C 243.732 59.003,241.947 57.616,240.776 56.617 C 239.606 55.618,238.500 54.800,238.320 54.800 C 237.750 54.800,234.250 53.084,233.000 52.192 C 232.340 51.721,230.540 51.107,229.000 50.828 C 225.209 50.142,222.947 49.473,220.269 48.249 C 216.542 46.544,206.672 45.985,195.490 46.844 " stroke="none" fill="#a4acb4" fill-rule="evenodd"></path></g></svg>